<svg width="100" height="100" viewBox="0 0 100 100" fill="none" xmlns="http://www.w3.org/2000/svg">
<path d="M43.435 4.74155C45.6901 -1.35278 54.3099 -1.35279 56.565 4.74154L65.8987 29.9656C66.6077 31.8816 68.1184 33.3923 70.0344 34.1013L95.2585 43.435C101.353 45.6901 101.353 54.3099 95.2585 56.565L70.0344 65.8987C68.1184 66.6077 66.6077 68.1184 65.8987 70.0344L56.565 95.2585C54.3099 101.353 45.6901 101.353 43.435 95.2585L34.1013 70.0344C33.3923 68.1184 31.8816 66.6077 29.9656 65.8987L4.74155 56.565C-1.35278 54.3099 -1.35279 45.6901 4.74154 43.435L29.9656 34.1013C31.8816 33.3923 33.3923 31.8816 34.1013 29.9656L43.435 4.74155Z" fill="white"/>
</svg>
